#!OML:ASF E:\Steps\Project 1\Capture day 1\Session 2\Subject.ASF
:FULLY-SPECIFIED
:DEGREES
65
root 9.23414 16.389 10.6897 -149.256 1.61484 179.194
lowerback -27.0976 -0.810256 -6.89052
upperback -2.54242 1.84933 -0.654564
thorax 12.0839 0.83022 3.97039
lowerneck 0.181287 -0.109659 -3.77357
upperneck 8.82411 -1.00286 6.97233
head 2.88174 -0.584967 2.93462
rclavicle 1.43125e-014 -2.10712e-014
rhumerus -32.8903 -4.56656 -88.095
rradius 43.1071
rwrist -6.89107
rhand -3.75135 -55.3258
rfingers 7.12502
rthumb 21.9927 -84.0955
lclavicle 1.43125e-014 -2.10712e-014
lhumerus -32.1655 1.60308 82.6244
lradius 30.7375
lwrist 3.16732
lhand -22.6593 -16.4746
lfingers 7.12502
lthumb 3.7721 13.4717
rfemur -27.9737 7.89268 18.8053
rtibia 5.47052
rfoot -17.3436 -11.0617
rtoes -27.2839
lfemur -30.4027 -10.0736 -16.1263
ltibia 8.88946
lfoot -7.64856 3.16937
ltoes -40.0386
66
root 9.23881 16.3876 10.7015 -149.087 1.47205 179.147
lowerback -26.9779 -0.848715 -6.92886
upperback -2.57577 1.80467 -0.671772
thorax 11.9863 0.815137 3.95276
lowerneck 0.21063 -0.10107 -3.77131
upperneck 8.82243 -0.992705 6.97252
head 2.87503 -0.58066 2.93425
rclavicle -7.45443e-015 1.23246e-014
rhumerus -32.9499 -4.4725 -88.1962
rradius 43.3398
rwrist -6.9647
rhand -3.4619 -52.8596
rfingers 7.12502
rthumb 22.2706 -81.5964
lclavicle -7.45443e-015 1.23246e-014
lhumerus -32.2123 1.20714 82.6455
lradius 31.0115
lwrist 3.27084
lhand -22.5442 -16.6823
lfingers 7.12502
lthumb 3.88326 13.262
rfemur -28.2565 7.9416 18.7494
rtibia 5.59969
rfoot -17.3597 -11.3081
rtoes -27.3492
lfemur -30.716 -9.98537 -16.1241
ltibia 9.00759
lfoot -7.60898 2.93627
ltoes -39.5343
67
root 9.23959 16.3872 10.7053 -149.076 1.45909 179.108
lowerback -26.8867 -0.824319 -6.95245
upperback -2.47362 1.82315 -0.69331
thorax 12.0542 0.809224 3.94575
lowerneck 0.169249 -0.101922 -3.8018
upperneck 8.82451 -0.990724 6.98264
head 2.88388 -0.578647 2.9439
rclavicle -1.54058e-014 2.14687e-014
rhumerus -32.7723 -4.38271 -88.2648
rradius 43.4265
rwrist -7.08188
rhand -3.44014 -54.3022
rfingers 7.12502
rthumb 22.2915 -83.0365
lclavicle -1.54058e-014 2.14687e-014
lhumerus -32.1396 0.885887 82.704
lradius 31.2956
lwrist 3.21359
lhand -22.6292 -16.8864
lfingers 7.12502
lthumb 3.80115 13.0594
rfemur -28.3055 7.93957 18.7059
rtibia 5.6615
rfoot -17.3365 -11.3584
rtoes -27.67
lfemur -30.7684 -9.98386 -16.1735
ltibia 9.0352
lfoot -7.56839 2.90862
ltoes -39.6195
68
root 9.23768 16.3875 10.7104 -149.02 1.44348 179.097
lowerback -26.855 -0.808055 -6.96284
upperback -2.36071 1.82429 -0.661026
thorax 12.1664 0.791439 3.98838
lowerneck 0.109669 -0.110218 -3.86205
upperneck 8.83365 -0.997107 6.99232
head 2.89945 -0.581056 2.95909
rclavicle -2.38542e-015 -1.19271e-015
rhumerus -32.5942 -4.16637 -88.2666
rradius 43.5278
rwrist -7.22653
rhand -3.28279 -54.3096
rfingers 7.12502
rthumb 22.4425 -83.0257
lclavicle -2.38542e-015 -1.19271e-015
lhumerus -32.1 0.738278 82.8197
lradius 31.6248
lwrist 3.06871
lhand -22.6891 -17.1405
lfingers 7.12502
lthumb 3.74329 12.8064
rfemur -28.401 7.79616 18.7239
rtibia 5.68424
rfoot -17.2866 -11.2675
rtoes -27.9803
lfemur -30.8917 -10.0355 -16.1684
ltibia 9.07318
lfoot -7.51869 2.95426
ltoes -40.7842
69
root 9.23681 16.3857 10.7184 -148.814 1.44808 179.191
lowerback -26.9312 -0.758573 -6.88172
upperback -2.29422 1.85618 -0.611821
thorax 12.2809 0.797074 4.01219
lowerneck 0.0256321 -0.114074 -3.91018
upperneck 8.84598 -0.996168 6.99841
head 2.92002 -0.578745 2.97116
rclavicle 2.97183e-014 -3.4191e-014
rhumerus -32.4696 -3.82444 -88.2882
rradius 43.6728
rwrist -7.45786
rhand -3.45592 -53.3383
rfingers 7.12502
rthumb 22.2764 -82.0744
lclavicle 2.97183e-014 -3.4191e-014
lhumerus -32.0571 0.653175 82.9134
lradius 31.9467
lwrist 2.90429
lhand -22.6961 -17.3752
lfingers 7.12502
lthumb 3.73654 12.5718
rfemur -28.7336 7.60379 18.873
rtibia 5.81731
rfoot -17.3092 -11.0071
rtoes -27.9792
lfemur -31.1981 -10.027 -16.0047
ltibia 9.14466
lfoot -7.51815 3.02763
ltoes -40.6004
70
root 9.23793 16.3844 10.7281 -148.584 1.3538 179.286
lowerback -26.9611 -0.725026 -6.77087
upperback -2.27732 1.86131 -0.575048
thorax 12.3175 0.800506 3.99343
lowerneck -0.0537442 -0.10564 -3.94436
upperneck 8.85912 -0.978502 6.99647
head 2.93863 -0.568042 2.97821
rclavicle -1.19271e-014 -4.77083e-015
rhumerus -32.4205 -3.52349 -88.3644
rradius 43.8857
rwrist -7.65368
rhand -4.07504 -52.7614
rfingers 7.12502
rthumb 21.6819 -81.5673
lclavicle -1.19271e-014 -4.77083e-015
lhumerus -32.0576 0.601981 82.9135
lradius 32.1788
lwrist 2.57468
lhand -22.5486 -17.4921
lfingers 7.12502
lthumb 3.87902 12.4523
rfemur -29.0452 7.3092 19.077
rtibia 5.88052
rfoot -17.3178 -10.7026
rtoes -27.8335
lfemur -31.5812 -10.0091 -15.8016
ltibia 9.3444
lfoot -7.61414 2.95295
ltoes -38.9386
71
root 9.2397 16.3887 10.7386 -148.529 1.14338 179.273
lowerback -26.8082 -0.723914 -6.7492
upperback -2.20747 1.82927 -0.566534
thorax 12.3206 0.778316 3.97443
lowerneck -0.10533 -0.0959743 -3.97897
upperneck 8.86821 -0.96016 6.99362
head 2.95062 -0.557827 2.98479
rclavicle 1.85864e-014 -2.0276e-014
rhumerus -32.4193 -3.30288 -88.4636
rradius 44.2839
rwrist -7.77392
rhand -3.34574 -53.336
rfingers 7.12502
rthumb 22.3821 -82.0594
lclavicle 1.85864e-014 -2.0276e-014
lhumerus -32.1082 0.390589 82.906
lradius 32.4495
lwrist 2.22146
lhand -22.5797 -17.3453
lfingers 7.12502
lthumb 3.84897 12.5997
rfemur -29.098 7.10109 19.1541
rtibia 5.83394
rfoot -17.3349 -10.7093
rtoes -27.8
lfemur -31.8178 -10.079 -15.7237
ltibia 9.59406
lfoot -7.68666 2.77087
ltoes -38.3395
72
root 9.24401 16.3958 10.7504 -148.539 0.955874 179.229
lowerback -26.6018 -0.720665 -6.793
upperback -2.10173 1.81582 -0.595589
thorax 12.3342 0.758585 3.95527
lowerneck -0.104675 -0.0891708 -3.97402
upperneck 8.86411 -0.949477 6.99007
head 2.9483 -0.551966 2.98283
rclavicle 1.88845e-014 -2.127e-014
rhumerus -32.4538 -3.07669 -88.6356
rradius 44.7684
rwrist -7.93657
rhand -2.56297 -55.1007
rfingers 7.12502
rthumb 23.1333 -83.7318
lclavicle 1.88845e-014 -2.127e-014
lhumerus -32.1329 0.0385379 82.891
lradius 32.8009
lwrist 2.16602
lhand -22.8722 -16.9603
lfingers 7.12502
lthumb 3.56651 12.9896
rfemur -29.1367 7.24958 19.0764
rtibia 5.88977
rfoot -17.3718 -11.0789
rtoes -27.7451
lfemur -31.9511 -10.1011 -15.7146
ltibia 9.70146
lfoot -7.62238 2.62874
ltoes -39.1438
73
root 9.24946 16.395 10.7641 -148.311 0.818651 179.277
lowerback -26.607 -0.702824 -6.73443
upperback -2.11493 1.83104 -0.637537
thorax 12.3233 0.772599 3.87928
lowerneck -0.0223634 -0.0729119 -3.899
upperneck 8.83779 -0.930773 6.9728
head 2.92151 -0.543035 2.96204
rclavicle 1.25234e-014 -1.55052e-014
rhumerus -32.5709 -2.85119 -88.8586
rradius 45.1813
rwrist -8.14688
rhand -4.01645 -51.7045
rfingers 7.12502
rthumb 21.7382 -80.5039
lclavicle 1.25234e-014 -1.55052e-014
lhumerus -32.2496 -0.466658 82.8506
lradius 33.2056
lwrist 2.38371
lhand -23.0803 -16.7174
lfingers 7.12502
lthumb 3.3656 13.2358
rfemur -29.5079 7.42511 19.0844
rtibia 6.04156
rfoot -17.3571 -11.357
rtoes -27.7185
lfemur -32.3511 -10.0024 -15.5709
ltibia 9.81783
lfoot -7.57623 2.51079
ltoes -39.1322
74
root 9.25249 16.3965 10.778 -148.231 0.712146 179.288
lowerback -26.4563 -0.646339 -6.70484
upperback -2.08069 1.88038 -0.675078
thorax 12.2788 0.795257 3.83219
lowerneck 0.0752507 -0.0612457 -3.83115
upperneck 8.80701 -0.918586 6.95985
head 2.89098 -0.537811 2.9438
rclavicle -7.85199e-015 9.54166e-015
rhumerus -32.6898 -2.57678 -89.0136
rradius 45.6236
rwrist -8.39204
rhand -4.22798 -53.9398
rfingers 7.12502
rthumb 21.535 -82.7626
lclavicle -7.85199e-015 9.54166e-015
lhumerus -32.4714 -1.26753 82.9305
lradius 33.8783
lwrist 2.76756
lhand -23.2578 -16.6082
lfingers 7.12502
lthumb 3.19412 13.3476
rfemur -29.6889 7.3758 19.1164
rtibia 6.1039
rfoot -17.3461 -11.4013
rtoes -27.6419
lfemur -32.5851 -10.0159 -15.4789
ltibia 9.95316
lfoot -7.60743 2.47999
ltoes -38.9592
75
root 9.25534 16.4009 10.792 -148.301 0.647333 179.194
lowerback -26.1366 -0.591621 -6.81736
upperback -1.97969 1.94294 -0.712983
thorax 12.215 0.809339 3.86554
lowerneck 0.12485 -0.0674116 -3.83002
upperneck 8.79927 -0.928873 6.9652
head 2.87982 -0.543854 2.94472
rclavicle 9.93923e-015 4.77083e-015
rhumerus -32.772 -2.17695 -89.1534
rradius 46.1183
rwrist -8.78604
rhand -3.77053 -53.612
rfingers 7.12502
rthumb 21.9743 -82.3838
lclavicle 9.93923e-015 4.77083e-015
lhumerus -32.6817 -1.80756 83.0054
lradius 34.5605
lwrist 2.97187
lhand -23.2259 -16.9475
lfingers 7.12502
lthumb 3.22496 13.0079
rfemur -29.6801 7.34777 19.006
rtibia 6.12299
rfoot -17.3902 -11.482
rtoes -27.4396
lfemur -32.6269 -10.1129 -15.5362
ltibia 10.0316
lfoot -7.5889 2.46286
ltoes -39.5516
76
root 9.25779 16.403 10.8056 -148.218 0.53113 179.198
lowerback -25.9473 -0.534369 -6.80686
upperback -1.93542 1.99032 -0.730258
thorax 12.1597 0.82844 3.85028
lowerneck 0.0927781 -0.087188 -3.82073
upperneck 8.8157 -0.955729 6.97198
head 2.89309 -0.555601 2.94522
rclavicle -1.61016e-014 4.77083e-015
rhumerus -32.7543 -1.81416 -89.2904
rradius 46.502
rwrist -9.13361
rhand -4.01662 -54.0205
rfingers 7.12502
rthumb 21.738 -82.8199
lclavicle -1.61016e-014 4.77083e-015
lhumerus -32.7744 -2.00908 82.9794
lradius 34.9035
lwrist 2.90958
lhand -23.2101 -17.7188
lfingers 7.12502
lthumb 3.24022 12.2363
rfemur -29.8328 7.3705 19.0065
rtibia 6.17897
rfoot -17.402 -11.6363
rtoes -27.4549
lfemur -32.8171 -10.2536 -15.4099
ltibia 10.0517
lfoot -7.49357 2.50655
ltoes -39.5338
77
root 9.26041 16.4028 10.8201 -147.954 0.352573 179.256
lowerback -25.9067 -0.491726 -6.71449
upperback -1.9233 2.01359 -0.734459
thorax 12.1522 0.842941 3.79933
lowerneck -0.0114852 -0.106497 -3.80618
upperneck 8.83524 -0.977289 6.97422
head 2.92046 -0.562203 2.94388
rclavicle 3.18055e-015 -2.92213e-014
rhumerus -32.6784 -1.45345 -89.4001
rradius 46.8721
rwrist -9.31136
rhand -3.91975 -54.0904
rfingers 7.12502
rthumb 21.831 -82.879
lclavicle 3.18055e-015 -2.92213e-014
lhumerus -32.774 -2.50236 82.9978
lradius 35.2052
lwrist 3.0141
lhand -23.4359 -17.7694
lfingers 7.12502
lthumb 3.02212 12.1889
rfemur -30.2257 7.34028 19.0878
rtibia 6.31733
rfoot -17.316 -11.7753
rtoes -27.7706
lfemur -33.2275 -10.414 -15.1512
ltibia 10.0803
lfoot -7.41705 2.64559
ltoes -39.3805
78
root 9.26358 16.4045 10.8297 -147.851 0.0452486 179.231
lowerback -25.7071 0.185254 -7.01016
upperback -1.85774 1.78161 -0.735764
thorax 12.0776 0.221899 3.77167
lowerneck -0.0409461 -0.102627 -3.85877
upperneck 8.84269 -0.967461 6.97468
head 2.92857 -0.557241 2.95458
rclavicle -2.98177e-016 8.34896e-015
rhumerus -32.7467 -0.848318 -89.5446
rradius 47.4137
rwrist -9.66183
rhand -4.10499 -54.1574
rfingers 7.12502
rthumb 21.6531 -82.9666
lclavicle -2.98177e-016 8.34896e-015
lhumerus -32.8919 -3.00461 83.0183
lradius 35.673
lwrist 3.17727
lhand -23.4749 -17.3134
lfingers 7.12502
lthumb 2.98447 12.6455
rfemur -30.3384 7.30618 19.0991
rtibia 6.31065
rfoot -17.2465 -12.01
rtoes -27.9122
lfemur -33.4629 -10.6749 -14.987
ltibia 10.1446
lfoot -7.39305 2.7104
ltoes -39.9208
